# xmcd CD database file generated by Grip 2.95
# 
# Track frame offsets:
#       150
#       15790
#       26533
#       40219
#       55136
#       72301
#       88002
#       100792
#       114602
#       136399
#       155858
# 
# Disc length: 2304 seconds
# 
# Revision: 3
# Processed by: cddbd v1.4PL0 Copyright (c) Steve Scherf et al.
# Submitted via: Grip 2.95
# 
DISCID=8a08fe0b
DTITLE=Mighty Blue Kings - Alive in the City
DYEAR=1900
DGENRE=
TTITLE0=Tryin' to have a good time
TTITLE1=Lonely for your love
TTITLE2=Alive in the city
TTITLE3=Devils on my back
TTITLE4=Will it go round in circles
TTITLE5=My heart is true
TTITLE6=It ain't no fun to me
TTITLE7=Call me honey
TTITLE8=How long, how long
TTITLE9=Your good thing
TTITLE10=Gimme love
EXTD=
EXTT0=
EXTT1=
EXTT2=
EXTT3=
EXTT4=
EXTT5=
EXTT6=
EXTT7=
EXTT8=
EXTT9=
EXTT10=
PLAYORDER=
